<?xml version="1.0" encoding="utf-8"?>
<!-- Generator: Adobe Illustrator 19.1.1, SVG Export Plug-In . SVG Version: 6.00 Build 0)  -->
<svg version="1.1" id="Laag_1" xmlns="http://www.w3.org/2000/svg" xmlns:xlink="http://www.w3.org/1999/xlink" x="0px" y="0px"
	 viewBox="0 0 200 200" style="enable-background:new 0 0 200 200;" xml:space="preserve">
<style type="text/css">
	.st0{fill:#E94E1B;}
</style>
<g>
	<g>
		<polygon class="st0" points="188.2,285 188.2,280.1 188.2,279.4 187.4,279.4 182.5,279.4 182.5,285.1 		"/>
		<path class="st0" d="M175.3,298.2c3.3,0,5.9-2.7,5.9-5.9c0-1.3-0.4-2.5-1.1-3.4c-1.1-1.5-2.8-2.5-4.8-2.5s-3.7,1-4.8,2.5
			c-0.7,1-1.1,2.2-1.1,3.4C169.3,295.5,172,298.2,175.3,298.2z"/>
		<path class="st0" d="M175.4,260.9c-17.1,0-30.9,13.8-30.9,30.9c0,17.1,13.8,30.9,30.9,30.9c17.1,0,30.9-13.8,30.9-30.9
			C206.3,274.7,192.5,260.9,175.4,260.9z M192.1,288.8v13.8c0,3.6-2.9,6.5-6.5,6.5h-20.6c-3.6,0-6.5-2.9-6.5-6.5v-13.8V282
			c0-3.6,2.9-6.5,6.5-6.5h20.6c3.6,0,6.5,2.9,6.5,6.5V288.8z"/>
		<path class="st0" d="M184.4,292.3c0,5.1-4.1,9.2-9.2,9.2c-5.1,0-9.2-4.1-9.2-9.2c0-1.2,0.2-2.4,0.7-3.4h-5v13.8
			c0,1.8,1.4,3.2,3.2,3.2h20.6c1.8,0,3.2-1.4,3.2-3.2v-13.8h-5C184.2,289.9,184.4,291.1,184.4,292.3z"/>
	</g>
</g>
<path class="st0" d="M85.9,154.4h22.5V100h15l2-18.7h-17l0-9.4c0-4.9,0.5-7.5,7.5-7.5h9.4V45.6h-15c-18,0-24.4,9.1-24.4,24.4v11.3
	H74.7V100h11.2V154.4z M100,200C44.8,200,0,155.2,0,100C0,44.8,44.8,0,100,0s100,44.8,100,100C200,155.2,155.2,200,100,200z"/>
</svg>
