<?xml version="1.0" encoding="utf-8"?>
<!-- Generator: Adobe Illustrator 19.1.1, SVG Export Plug-In . SVG Version: 6.00 Build 0)  -->
<svg version="1.1" id="Laag_1" xmlns="http://www.w3.org/2000/svg" xmlns:xlink="http://www.w3.org/1999/xlink" x="0px" y="0px"
	 viewBox="0 0 200 200" style="enable-background:new 0 0 200 200;" xml:space="preserve">
<style type="text/css">
	.st0{fill:#E94E1B;}
</style>
<g>
	<g>
		<polygon class="st0" points="141.3,78.1 141.3,62.1 141.3,59.7 138.9,59.7 122.9,59.8 122.9,78.2 		"/>
		<path class="st0" d="M99.5,120.7c10.6,0,19.1-8.6,19.1-19.1c0-4.2-1.4-8-3.6-11.2c-3.5-4.8-9.1-8-15.5-8s-12,3.2-15.5,8
			c-2.3,3.1-3.6,7-3.6,11.2C80.4,112.1,89,120.7,99.5,120.7z"/>
		<path class="st0" d="M100,0C44.8,0,0,44.8,0,100s44.8,100,100,100c55.2,0,100-44.8,100-100S155.2,0,100,0z M153.9,90.4v44.5
			c0,11.6-9.4,21-21,21H66.2c-11.6,0-21-9.4-21-21V90.4V68.2c0-11.6,9.4-21,21-21h66.7c11.6,0,21,9.4,21,21L153.9,90.4z"/>
		<path class="st0" d="M129.2,101.5c0,16.4-13.3,29.7-29.7,29.7s-29.7-13.3-29.7-29.7c0-4,0.8-7.7,2.2-11.2H55.7v44.5
			c0,5.7,4.7,10.4,10.4,10.4h66.7c5.7,0,10.4-4.7,10.4-10.4V90.4H127C128.4,93.8,129.2,97.6,129.2,101.5z"/>
	</g>
</g>
</svg>
