<?xml version="1.0" encoding="utf-8"?>
<!-- Generator: Adobe Illustrator 19.1.1, SVG Export Plug-In . SVG Version: 6.00 Build 0)  -->
<svg version="1.1" id="Laag_1" xmlns="http://www.w3.org/2000/svg" xmlns:xlink="http://www.w3.org/1999/xlink" x="0px" y="0px"
	 viewBox="0 0 200 200" style="enable-background:new 0 0 200 200;" xml:space="preserve">
<style type="text/css">
	.st0{fill:#E94E1B;}
	.st1{fill:none;stroke:#FFFFFF;stroke-width:6.167;stroke-miterlimit:10;}
</style>
<g>
	<path class="st0" d="M0,100c0,55.2,44.8,100,100,100s100-44.8,100-100S155.2,0,100,0S0,44.8,0,100z"/>
	<g id="Mail_1_">
		<path class="st1" d="M54.6,62.5h90.8c2.6,0,4.6,2.1,4.6,4.6v66.3c0,2.6-2.1,4.6-4.6,4.6H54.6c-2.6,0-4.6-2.1-4.6-4.6V67.1
			C50,64.6,52.1,62.5,54.6,62.5z"/>
		<path class="st1" d="M148.3,65.1l-34.1,36.6c-7.5,7.8-19.9,8.1-27.7,0.6c-0.2-0.2-0.4-0.4-0.6-0.6L51.8,65.1"/>
		<line class="st1" x1="119.3" y1="96.1" x2="147.3" y2="136"/>
		<line class="st1" x1="81.2" y1="96.5" x2="52.2" y2="136"/>
	</g>
</g>
</svg>
